<?xml version="1.0" encoding="iso-8859-1"?>
<!-- Generator: Adobe Illustrator 19.0.0, SVG Export Plug-In . SVG Version: 6.00 Build 0)  -->
<svg version="1.1" id="Layer_1" xmlns="http://www.w3.org/2000/svg" xmlns:xlink="http://www.w3.org/1999/xlink" x="0px" y="0px"
	 viewBox="0 0 512 512" style="enable-background:new 0 0 512 512;" xml:space="preserve">
<g>
	<g>
		<g>
			<path d="M363.349,43.452c-4.267,1.98-6.135,7.031-4.156,11.307c1.954,4.275,7.04,6.161,11.307,4.19
				c6.195-2.833,25.54-9.233,33.067-1.715c5.692,5.692,6.025,11.017,6.033,11.034c0,4.71,3.814,8.533,8.533,8.533
				c4.719,0,8.533-3.823,8.533-8.533c0-1.237-0.307-12.382-11.034-23.1C398.421,27.964,366.899,41.822,363.349,43.452z"/>
			<path d="M366.933,0c-55.125,0-73.924,14.131-87.654,24.448c-8.047,6.042-12.902,9.685-23.279,9.685
				c-10.291,0-15.01-3.601-22.835-9.583C219.588,14.191,201.011,0,145.067,0C52.796,0,34.133,24.405,34.133,145.067
				c0,58.974,30.601,113.05,51.482,143.13c1.425,11.213,2.671,25.216,3.968,40.098C96.375,405.828,105.685,512,162.133,512
				c42.513,0,49.408-34.756,56.073-68.369c5.632-28.365,11.972-60.288,37.794-82.799c25.822,22.511,32.162,54.434,37.794,82.799
				c6.665,33.613,13.56,68.369,56.073,68.369c1.024,0,2.039-0.188,3.004-0.546c54.34-20.378,63.232-116.403,69.717-186.513
				c1.246-13.389,2.432-26.018,3.789-36.736c20.89-30.08,51.49-84.156,51.49-143.138C477.867,24.405,459.213,0,366.933,0z
				 M394.684,301.534c-3.123,3.524-2.799,8.917,0.717,12.049c1.621,1.434,3.652,2.15,5.666,2.15c1.971,0,3.866-0.836,5.453-2.185
				c-0.307,3.226-0.614,6.494-0.922,9.813c-6.007,64.913-14.216,153.549-57.31,171.554c-25.847-0.717-30.78-19.413-37.76-54.605
				c-6.255-31.514-14.037-70.741-49.408-97.271c-3.038-2.27-7.202-2.27-10.24,0c-35.371,26.53-43.153,65.758-49.408,97.271
				c-7.125,35.891-12.109,54.622-39.339,54.622c-40.815,0-50.031-105.25-55.552-168.124c-0.401-4.54-0.794-8.96-1.178-13.303
				c3.183,2.782,7.945,2.953,11.196,0.077c3.516-3.132,3.84-8.525,0.717-12.049c-0.666-0.742-66.116-75.477-66.116-156.467
				c0-117.743,15.386-128,93.867-128c50.167,0,65.459,11.674,77.739,21.052C231.236,44.553,239.94,51.2,256,51.2
				c16.077,0,24.943-6.665,33.527-13.116c12.467-9.361,27.981-21.018,77.406-21.018c77.286,0,93.867,11.025,93.867,128
				C460.8,226.057,395.349,300.792,394.684,301.534z"/>
		</g>
	</g>
</g>
<g>
</g>
<g>
</g>
<g>
</g>
<g>
</g>
<g>
</g>
<g>
</g>
<g>
</g>
<g>
</g>
<g>
</g>
<g>
</g>
<g>
</g>
<g>
</g>
<g>
</g>
<g>
</g>
<g>
</g>
</svg>
