<?xml version="1.0" standalone="no"?>
<!DOCTYPE svg PUBLIC "-//W3C//DTD SVG 20010904//EN"
 "http://www.w3.org/TR/2001/REC-SVG-20010904/DTD/svg10.dtd">
<svg version="1.0" xmlns="http://www.w3.org/2000/svg"
 width="512.000000pt" height="512.000000pt" viewBox="0 0 512.000000 512.000000"
 preserveAspectRatio="xMidYMid meet">

<g transform="translate(0.000000,512.000000) scale(0.100000,-0.100000)"
fill="#000000" stroke="none">
<path d="M2405 4639 c-422 -39 -836 -213 -1168 -489 -316 -264 -565 -650 -672
-1045 -85 -311 -97 -673 -34 -983 31 -153 48 -210 106 -357 281 -709 917
-1207 1683 -1316 135 -20 458 -17 585 5 400 67 733 217 1031 461 396 326 650
772 741 1300 27 158 24 511 -5 676 -27 152 -57 260 -107 394 -331 880 -1225
1440 -2160 1354z m390 -65 c108 -18 220 -62 335 -129 103 -61 256 -209 325
-313 222 -340 223 -787 3 -1123 -109 -166 -233 -276 -411 -364 -146 -72 -232
-93 -434 -105 -173 -11 -219 -18 -323 -52 -210 -68 -385 -190 -511 -357 -61
-80 -152 -266 -173 -351 -41 -175 -43 -329 -6 -501 83 -384 406 -693 810 -774
82 -16 36 -19 -80 -4 -137 17 -226 37 -384 90 -382 127 -704 352 -960 672
-233 291 -381 641 -431 1025 -59 451 52 953 296 1339 325 513 868 868 1449
946 146 20 384 21 495 1z m-80 -2820 c120 -56 178 -189 141 -318 -24 -80 -99
-158 -175 -180 -111 -33 -200 -11 -277 68 -63 65 -89 133 -81 212 6 57 45 139
83 175 76 72 210 91 309 43z"/>
<path d="M2494 3816 c-46 -20 -112 -84 -136 -130 -11 -22 -23 -68 -25 -101
-16 -203 195 -349 375 -259 170 85 203 303 65 436 -21 20 -55 44 -75 53 -46
19 -161 19 -204 1z"/>
</g>
</svg>
